<?xml version="1.0" standalone="no"?><!DOCTYPE svg PUBLIC "-//W3C//DTD SVG 1.1//EN" "http://www.w3.org/Graphics/SVG/1.1/DTD/svg11.dtd"><svg t="1662436110782" class="icon" viewBox="0 0 1024 1024" version="1.1" xmlns="http://www.w3.org/2000/svg" p-id="1134" xmlns:xlink="http://www.w3.org/1999/xlink" width="200" height="200"><path d="M512 595.2m-262.4 0a262.4 262.4 0 1 0 524.8 0 262.4 262.4 0 1 0-524.8 0Z" fill="#17A09A" p-id="1135"></path><path d="M416 512m-38.4 0a38.4 38.4 0 1 0 76.8 0 38.4 38.4 0 1 0-76.8 0Z" fill="#FDD000" p-id="1136"></path><path d="M595.2 659.2m-51.2 0a51.2 51.2 0 1 0 102.4 0 51.2 51.2 0 1 0-102.4 0Z" fill="#FDD000" p-id="1137"></path><path d="M518.4 396.8c-6.4 0-6.4 0-6.4-6.4V172.8h172.8l-64 57.6 64 57.6H524.8v108.8h-6.4z m6.4-128H640l-44.8-44.8 44.8-38.4H524.8v83.2z" fill="#DF4E38" p-id="1138"></path><path d="M518.4 179.2h140.8l-51.2 44.8 51.2 51.2-140.8 6.4z" fill="#DF4E38" p-id="1139"></path></svg>